<?xml version="1.0" encoding="UTF-8" standalone="no"?>
<!-- Created with Inkscape (http://www.inkscape.org/) -->

<svg
   version="1.1"
   id="svg73"
   xml:space="preserve"
   width="371.21118"
   height="215.84912"
   viewBox="0 0 371.21118 215.84912"
   sodipodi:docname="logo.svg"
   inkscape:version="1.1.2 (b8e25be8, 2022-02-05)"
   xmlns:inkscape="http://www.inkscape.org/namespaces/inkscape"
   xmlns:sodipodi="http://sodipodi.sourceforge.net/DTD/sodipodi-0.dtd"
   xmlns="http://www.w3.org/2000/svg"
   xmlns:svg="http://www.w3.org/2000/svg"><defs
     id="defs77"><clipPath
       clipPathUnits="userSpaceOnUse"
       id="clipPath87"><path
         d="M 0,252 H 360 V 0 H 0 Z"
         id="path85" /></clipPath></defs><sodipodi:namedview
     id="namedview75"
     pagecolor="#505050"
     bordercolor="#ffffff"
     borderopacity="1"
     inkscape:pageshadow="0"
     inkscape:pageopacity="0"
     inkscape:pagecheckerboard="1"
     showgrid="false"
     inkscape:zoom="2.4604167"
     inkscape:cx="186.75698"
     inkscape:cy="83.116002"
     inkscape:window-width="1394"
     inkscape:window-height="1081"
     inkscape:window-x="2701"
     inkscape:window-y="1615"
     inkscape:window-maximized="0"
     inkscape:current-layer="g79"
     height="335px"
     fit-margin-top="3"
     fit-margin-left="3"
     fit-margin-right="3"
     fit-margin-bottom="3"
     lock-margins="true" /><g
     id="g79"
     inkscape:groupmode="layer"
     inkscape:label="ABC_Bank_NMLS"
     transform="matrix(1.3333333,0,0,-1.3333333,-53.038532,250.97379)"><g
       id="g81"><g
         id="g83"
         clip-path="url(#clipPath87)"><g
           id="g89"
           transform="translate(166.9837,160.1379)"><path
             d="M 0,0 C 5.543,10.172 11.835,11.439 11.835,11.439 L 9.308,-0.019 Z M -5.599,-9.383 H 7.602 l -1.351,-7.413 h 11.114 l 7.521,41.16 c 0,0 -5.141,-0.341 -11.448,-2.792 C 7.367,19.219 0.227,14.882 -4.974,8.954 c -8.18,-9.32 -13.354,-25.75 -13.354,-25.75 l 9.966,-0.028 c 1.167,5.374 2.763,7.441 2.763,7.441"
             style="fill:#234889;fill-opacity:1;fill-rule:nonzero;stroke:none"
             id="path91" /></g><g
           id="g93"
           transform="translate(217.276,156.2168)"><path
             d="m 0,0 c -1.178,-3.704 -5.22,-3.53 -5.22,-3.53 l -9.04,0.019 1.181,7.606 H -2.112 C -0.81,4.085 0.743,2.343 0,0 m -1.055,19.278 c 0,0 4.591,0.095 3.418,-4.065 -0.578,-2.018 -2.631,-3.517 -3.36,-3.506 h -10.898 l 1.177,7.607 z m 15.814,-2.304 c 2.023,10.11 -5.249,11.311 -9.73,11.311 h -26.538 l -6.341,-41.16 h 25.946 c 2.153,0 11.888,0 14.126,10.342 2.063,9.534 -3.651,10.532 -6.203,10.925 0,0 7.021,0 8.74,8.582"
             style="fill:#234889;fill-opacity:1;fill-rule:nonzero;stroke:none"
             id="path95" /></g><g
           id="g97"
           transform="translate(167.9194,111.952)"><path
             d="m 0,0 c -1.137,-3.578 -5.043,-3.41 -5.043,-3.41 l -8.733,0.017 1.145,7.353 H -2.038 C -0.78,3.947 0.729,2.263 0,0 m -1.009,18.631 c 0,0 4.433,0.092 3.296,-3.925 -0.556,-1.955 -2.539,-3.398 -3.248,-3.396 h -10.532 l 1.14,7.356 z m 15.271,-2.232 c 1.956,9.778 -5.076,10.933 -9.406,10.933 h -24.215 l -7.082,-39.773 h 24.6 c 2.089,0 11.487,0 13.651,9.989 2,9.221 -3.519,10.182 -5.996,10.559 0,0 6.789,0 8.448,8.292"
             style="fill:#234889;fill-opacity:1;fill-rule:nonzero;stroke:none"
             id="path99" /></g><g
           id="g101"
           transform="translate(246.6475,170.5657)"><path
             d="M 0,0 C 0.308,1.5 0.375,2.397 1.896,2.397 V 2.43 H 25.352 L 28.14,13.938 H 3.385 C -3.926,14.098 -8.909,10.249 -10.294,3.304 l -3.711,-18.826 -0.065,-0.012 c -2.192,-8.853 4.511,-11.919 9.883,-11.919 l 24.133,0.037 2.584,10.925 H -1.201 c -1.337,0.091 -1.559,0.877 -1.165,3.309 z"
             style="fill:#234889;fill-opacity:1;fill-rule:nonzero;stroke:none"
             id="path103" /></g><g
           id="g105"
           transform="translate(303.4142,129.4803)"><path
             d="M 0,0 C 2.496,2.774 7.256,9.767 7.256,9.767 H -6.653 c 0,0 -7.462,-9.644 -9.184,-11.572 -1.774,-2.002 -3.729,-2.104 -4.514,-2.051 l 2.187,13.623 h -11.177 l -6.398,-39.79 h 11.176 l 2.765,17.185 c 1.519,0.048 10.903,0.944 11.082,-3.968 0.11,-3.036 -0.027,-4.188 -1.064,-13.217 h 11.208 c 0,0 1.097,13.341 1.348,15.475 0.618,5.265 -5.03,7.472 -7.196,8.114 C -5.54,-5.605 -2.156,-2.402 0,0"
             style="fill:#234889;fill-opacity:1;fill-rule:nonzero;stroke:none"
             id="path107" /></g><g
           id="g109"
           transform="translate(195.2874,122.4154)"><path
             d="m 0,0 0.946,5.645 c 0.311,1.323 0.356,3.343 9.896,3.118 6.023,-0.148 7.856,-0.488 7.429,-3.354 L 17.373,0 Z M 19.602,16.83 H 2.809 c -7.891,0 -11.668,-6.659 -12.446,-10.895 0,0 0.025,-0.011 0.032,-0.011 l -4.82,-28.884 h 10.594 l 2.325,13.923 H 15.868 L 13.54,-22.96 h 10.593 l 4.658,27.886 0.016,0.224 c 1.431,7.9 -4.745,11.68 -9.205,11.68"
             style="fill:#234889;fill-opacity:1;fill-rule:nonzero;stroke:none"
             id="path111" /></g><g
           id="g113"
           transform="translate(258.7874,139.2226)"><path
             d="m 0,0 h -20.663 l -8.809,-6.833 -5.516,-32.933 h 10.59 l 5.271,31.574 h 13.746 l 0.161,0.015 c 1.763,0 3.235,-1.562 2.777,-3.966 l -4.58,-27.623 h 10.59 l 4.585,27.623 C 9.274,-6.636 5.27,0 0,0"
             style="fill:#234889;fill-opacity:1;fill-rule:nonzero;stroke:none"
             id="path115" /></g><g
           id="g117"
           transform="translate(98.7222,99.4561)"><path
             d="m 0,0 h 33.771 l 6.805,35.326 C 40.576,35.326 14.028,35.057 0,0"
             style="fill:#c92327;fill-opacity:1;fill-rule:nonzero;stroke:none"
             id="path119" /></g><g
           id="g121"
           transform="translate(155.6107,172.6125)"><path
             d="m 0,0 v 0 c -10.001,-9.185 -14.265,-26.475 -14.452,-27.238 l -0.511,-2.095 -1.961,-0.278 c -7.526,-1.065 -14.062,-4.369 -20.279,-7.225 -19.803,-9.11 -27.872,-36.32 -27.872,-36.32 h -48.496 c 2.676,14.715 19.274,49.468 49.331,67.981 27.988,17.239 59.707,18.63 82.152,18.539 C 17.912,13.364 8.203,8.588 0,0"
             style="fill:#234889;fill-opacity:1;fill-rule:nonzero;stroke:none"
             id="path123" /></g><g
           id="g125"
           transform="translate(287.2583,169.0298)"><path
             d="M 0,0 5.474,16.869 10.947,0 28.679,0.005 14.326,-10.412 19.818,-27.277 5.474,-16.843 -8.87,-27.277 l 5.483,16.865 -14.35,10.417 z"
             style="fill:#c92327;fill-opacity:1;fill-rule:nonzero;stroke:none"
             id="path127" /></g><path
           d="m 110.889,80.572 h 6.879 v -8.191 h -6.879 z"
           style="fill:#c92327;fill-opacity:1;fill-rule:nonzero;stroke:none"
           id="path129" /><path
           d="m 212.932,80.487 h 6.879 v -8.191 h -6.879 z"
           style="fill:#c92327;fill-opacity:1;fill-rule:nonzero;stroke:none"
           id="path131" /><g
           id="g133"
           transform="translate(43.8379,70.9443)"><path
             d="m 0,0 c 1.934,0 3.154,0.925 3.154,2.691 v 0.063 c 0,1.788 -1.135,2.797 -3.049,2.797 H -0.442 V 0 Z m 0.042,6.771 c 1.892,0 2.922,1.03 2.922,2.796 v 0.042 c 0,1.64 -1.093,2.586 -2.733,2.586 H -0.442 V 6.771 Z m -1.851,6.686 h 1.977 c 2.376,0 4.163,-1.346 4.163,-3.701 V 9.693 C 4.331,7.611 3.133,6.645 1.787,6.203 3.406,5.761 4.521,4.688 4.521,2.691 V 2.628 c 0,-2.46 -1.851,-3.89 -4.626,-3.89 h -1.704 z"
             style="fill:#234889;fill-opacity:1;fill-rule:nonzero;stroke:none"
             id="path135" /></g><g
           id="g137"
           transform="translate(54.8354,74.7295)"><path
             d="M 0,0 -1.493,7.4 -2.986,0 Z m -2.208,9.734 h 1.472 L 2.376,-5.047 H 0.988 L 0.21,-1.241 h -3.406 l -0.757,-3.806 h -1.346 z"
             style="fill:#234889;fill-opacity:1;fill-rule:nonzero;stroke:none"
             id="path139" /></g><g
           id="g141"
           transform="translate(58.9966,84.4014)"><path
             d="M 0,0 H 1.367 L 5.425,-11.039 V 0 H 6.75 V -14.719 H 5.467 L 1.304,-3.364 V -14.719 H 0 Z"
             style="fill:#234889;fill-opacity:1;fill-rule:nonzero;stroke:none"
             id="path143" /></g><g
           id="g145"
           transform="translate(68.1411,84.4014)"><path
             d="M 0,0 H 1.367 V -7.759 L 4.899,0 h 1.556 l -3.154,-6.539 3.47,-8.18 H 5.257 l -2.86,6.665 -1.03,-2.186 v -4.479 H 0 Z"
             style="fill:#234889;fill-opacity:1;fill-rule:nonzero;stroke:none"
             id="path147" /></g><path
           d="m 76.487,84.401 h 1.367 V 69.682 h -1.367 z"
           style="fill:#234889;fill-opacity:1;fill-rule:nonzero;stroke:none"
           id="path149" /><g
           id="g151"
           transform="translate(80.397,84.4014)"><path
             d="M 0,0 H 1.367 L 5.425,-11.039 V 0 H 6.75 V -14.719 H 5.467 L 1.304,-3.364 V -14.719 H 0 Z"
             style="fill:#234889;fill-opacity:1;fill-rule:nonzero;stroke:none"
             id="path153" /></g><g
           id="g155"
           transform="translate(89.1631,76.832)"><path
             d="m 0,0 v 0.42 c 0,4.815 2.082,7.275 4.584,7.275 0.778,0 1.325,-0.168 1.85,-0.463 V 5.782 C 5.803,6.16 5.236,6.371 4.605,6.371 2.881,6.371 1.388,4.415 1.388,0.441 v -0.462 c 0,-4.164 1.45,-6.014 3.196,-6.014 0.315,0 0.504,0.042 0.799,0.147 v 5.257 H 3.427 v 1.24 H 6.645 V -6.75 C 5.845,-7.149 5.299,-7.275 4.5,-7.275 2.04,-7.275 0,-4.921 0,0"
             style="fill:#234889;fill-opacity:1;fill-rule:nonzero;stroke:none"
             id="path157" /></g><g
           id="g159"
           transform="translate(133.0459,84.4014)"><path
             d="M 0,0 H 1.514 L 3.974,-7.465 6.455,0 H 7.969 V -14.719 H 6.645 V -3.07 L 4.016,-10.808 H 3.932 L 1.304,-3.07 V -14.719 H 0 Z"
             style="fill:#234889;fill-opacity:1;fill-rule:nonzero;stroke:none"
             id="path161" /></g><g
           id="g163"
           transform="translate(148.8765,76.8105)"><path
             d="m 0,0 v 0.463 c 0,4.141 -0.967,6.056 -2.229,6.056 -1.261,0 -2.229,-1.915 -2.229,-6.056 V 0 c 0,-4.143 0.968,-6.056 2.229,-6.056 C -0.967,-6.056 0,-4.143 0,0 m -5.845,0 v 0.463 c 0,4.856 1.535,7.317 3.616,7.317 2.082,0 3.596,-2.461 3.596,-7.317 L 1.367,0 c 0,-4.857 -1.514,-7.317 -3.596,-7.317 -2.081,0 -3.616,2.46 -3.616,7.317"
             style="fill:#234889;fill-opacity:1;fill-rule:nonzero;stroke:none"
             id="path165" /></g><g
           id="g167"
           transform="translate(154.3623,76.6211)"><path
             d="m 0,0 c 1.767,0 2.923,1.114 2.923,3.26 v 0.062 c 0,2.23 -1.22,3.197 -2.986,3.197 H -0.694 V 0 Z m -2.061,7.78 h 2.04 C 2.565,7.78 4.29,6.245 4.29,3.344 V 3.28 C 4.29,1.262 3.406,-0.146 1.977,-0.777 L 4.563,-6.938 H 3.028 L 0.631,-1.177 C 0.442,-1.22 0.231,-1.22 0.021,-1.22 h -0.715 v -5.718 h -1.367 z"
             style="fill:#234889;fill-opacity:1;fill-rule:nonzero;stroke:none"
             id="path169" /></g><g
           id="g171"
           transform="translate(161.9297,83.1182)"><path
             d="M 0,0 H -2.229 V 1.283 H 3.617 V 0 H 1.367 V -13.436 H 0 Z"
             style="fill:#234889;fill-opacity:1;fill-rule:nonzero;stroke:none"
             id="path173" /></g><g
           id="g175"
           transform="translate(166.3647,76.832)"><path
             d="m 0,0 v 0.42 c 0,4.815 2.082,7.275 4.584,7.275 0.778,0 1.325,-0.168 1.85,-0.463 V 5.782 C 5.803,6.16 5.236,6.371 4.605,6.371 2.881,6.371 1.388,4.415 1.388,0.441 v -0.462 c 0,-4.164 1.451,-6.014 3.196,-6.014 0.315,0 0.504,0.042 0.799,0.147 v 5.257 H 3.427 v 1.24 H 6.645 V -6.75 C 5.845,-7.149 5.299,-7.275 4.5,-7.275 2.04,-7.275 0,-4.921 0,0"
             style="fill:#234889;fill-opacity:1;fill-rule:nonzero;stroke:none"
             id="path177" /></g><g
           id="g179"
           transform="translate(180.0093,74.7295)"><path
             d="M 0,0 -1.493,7.4 -2.986,0 Z m -2.208,9.734 h 1.472 L 2.376,-5.047 H 0.988 l -0.777,3.806 h -3.407 l -0.757,-3.806 h -1.346 z"
             style="fill:#234889;fill-opacity:1;fill-rule:nonzero;stroke:none"
             id="path181" /></g><g
           id="g183"
           transform="translate(183.269,76.832)"><path
             d="m 0,0 v 0.42 c 0,4.815 2.081,7.275 4.584,7.275 0.777,0 1.324,-0.168 1.85,-0.463 V 5.782 C 5.803,6.16 5.235,6.371 4.604,6.371 2.881,6.371 1.388,4.415 1.388,0.441 v -0.462 c 0,-4.164 1.45,-6.014 3.196,-6.014 0.315,0 0.504,0.042 0.799,0.147 v 5.257 H 3.427 v 1.24 H 6.645 V -6.75 C 5.845,-7.149 5.299,-7.275 4.499,-7.275 2.039,-7.275 0,-4.921 0,0"
             style="fill:#234889;fill-opacity:1;fill-rule:nonzero;stroke:none"
             id="path185" /></g><g
           id="g187"
           transform="translate(192.2456,84.4014)"><path
             d="M 0,0 H 5.173 V -1.283 H 1.366 V -6.666 H 4.814 V -7.948 H 1.366 v -5.489 h 3.869 v -1.282 H 0 Z"
             style="fill:#234889;fill-opacity:1;fill-rule:nonzero;stroke:none"
             id="path189" /></g><path
           d="m 235.089,84.401 h 1.367 V 69.682 h -1.367 z"
           style="fill:#234889;fill-opacity:1;fill-rule:nonzero;stroke:none"
           id="path191" /><g
           id="g193"
           transform="translate(238.9995,84.4014)"><path
             d="M 0,0 H 1.366 L 5.425,-11.039 V 0 H 6.749 V -14.719 H 5.467 L 1.304,-3.364 V -14.719 H 0 Z"
             style="fill:#234889;fill-opacity:1;fill-rule:nonzero;stroke:none"
             id="path195" /></g><g
           id="g197"
           transform="translate(247.7026,70.2295)"><path
             d="m 0,0 v 1.493 c 0.988,-0.61 1.808,-0.904 2.502,-0.904 1.114,0 1.871,0.693 1.871,1.891 v 0.043 c 0,1.073 -0.378,1.788 -1.893,3.764 -1.913,2.46 -2.459,3.322 -2.459,4.794 v 0.042 c 0,1.913 1.367,3.238 3.07,3.238 0.904,0 1.555,-0.211 2.25,-0.61 v -1.492 c -0.8,0.525 -1.473,0.777 -2.166,0.777 -1.03,0 -1.787,-0.735 -1.787,-1.829 V 11.165 C 1.388,10.177 1.787,9.482 3.301,7.591 5.151,5.319 5.74,4.205 5.74,2.586 V 2.544 C 5.74,0.567 4.353,-0.736 2.565,-0.736 1.661,-0.736 0.861,-0.463 0,0"
             style="fill:#234889;fill-opacity:1;fill-rule:nonzero;stroke:none"
             id="path199" /></g><g
           id="g201"
           transform="translate(255.3335,73.5938)"><path
             d="M 0,0 V 10.808 H 1.346 V -0.063 c 0,-1.83 0.757,-2.776 1.955,-2.776 1.178,0 1.956,0.946 1.956,2.776 V 10.808 H 6.623 V 0 C 6.623,-2.607 5.299,-4.101 3.301,-4.101 1.304,-4.101 0,-2.607 0,0"
             style="fill:#234889;fill-opacity:1;fill-rule:nonzero;stroke:none"
             id="path203" /></g><g
           id="g205"
           transform="translate(266.3491,76.6211)"><path
             d="m 0,0 c 1.767,0 2.923,1.114 2.923,3.26 v 0.062 c 0,2.23 -1.22,3.197 -2.985,3.197 H -0.693 V 0 Z m -2.061,7.78 h 2.04 C 2.565,7.78 4.29,6.245 4.29,3.344 V 3.28 C 4.29,1.262 3.406,-0.146 1.977,-0.777 L 4.563,-6.938 H 3.028 L 0.631,-1.177 C 0.442,-1.22 0.231,-1.22 0.021,-1.22 h -0.714 v -5.718 h -1.368 z"
             style="fill:#234889;fill-opacity:1;fill-rule:nonzero;stroke:none"
             id="path207" /></g><g
           id="g209"
           transform="translate(277.1343,74.7295)"><path
             d="M 0,0 -1.492,7.4 -2.985,0 Z m -2.207,9.734 h 1.472 L 2.376,-5.047 H 0.988 l -0.777,3.806 h -3.406 l -0.758,-3.806 h -1.346 z"
             style="fill:#234889;fill-opacity:1;fill-rule:nonzero;stroke:none"
             id="path211" /></g><g
           id="g213"
           transform="translate(281.2954,84.4014)"><path
             d="M 0,0 H 1.367 L 5.425,-11.039 V 0 H 6.75 V -14.719 H 5.467 L 1.304,-3.364 V -14.719 H 0 Z"
             style="fill:#234889;fill-opacity:1;fill-rule:nonzero;stroke:none"
             id="path215" /></g><g
           id="g217"
           transform="translate(290.062,76.832)"><path
             d="m 0,0 v 0.42 c 0,4.941 1.871,7.233 4.037,7.233 0.673,0 1.03,-0.105 1.514,-0.336 V 5.866 C 5.004,6.182 4.604,6.329 4.121,6.329 2.607,6.329 1.388,4.457 1.388,0.42 V 0 c 0,-4.101 1.219,-5.909 2.733,-5.909 0.505,0 0.946,0.147 1.472,0.463 V -6.813 C 5.13,-7.086 4.626,-7.233 3.974,-7.233 1.745,-7.233 0,-4.921 0,0"
             style="fill:#234889;fill-opacity:1;fill-rule:nonzero;stroke:none"
             id="path219" /></g><g
           id="g221"
           transform="translate(297.6714,84.4014)"><path
             d="M 0,0 H 5.173 V -1.283 H 1.367 V -6.666 H 4.815 V -7.948 H 1.367 v -5.489 h 3.869 v -1.282 H 0 Z"
             style="fill:#234889;fill-opacity:1;fill-rule:nonzero;stroke:none"
             id="path223" /></g><g
           id="g225"
           transform="translate(98.4792,54.3408)"><path
             d="M 0,0 H 3.292 V -0.816 H 0.87 V -4.242 H 3.064 V -5.059 H 0.87 V -8.551 H 3.332 V -9.367 H 0 Z"
             style="fill:#234889;fill-opacity:1;fill-rule:nonzero;stroke:none"
             id="path227" /></g><g
           id="g229"
           transform="translate(106.2965,46.084)"><path
             d="m 0,0 -0.923,1.058 0.508,0.481 0.696,-0.856 c 0.214,0.629 0.334,1.552 0.334,2.743 v 0.295 c 0,2.635 -0.615,3.853 -1.418,3.853 -0.803,0 -1.419,-1.218 -1.419,-3.853 V 3.426 c 0,-2.703 0.616,-3.867 1.446,-3.867 0.281,0 0.562,0.133 0.776,0.441 M 0.481,-0.548 C 0.134,-0.99 -0.294,-1.23 -0.79,-1.23 c -1.351,0 -2.315,1.565 -2.315,4.656 v 0.295 c 0,3.091 0.977,4.657 2.302,4.657 1.325,0 2.288,-1.566 2.288,-4.657 V 3.426 C 1.485,1.94 1.258,0.816 0.87,0.04 L 1.672,-0.869 1.151,-1.364 Z"
             style="fill:#234889;fill-opacity:1;fill-rule:nonzero;stroke:none"
             id="path231" /></g><g
           id="g233"
           transform="translate(109.6437,47.4629)"><path
             d="M 0,0 V 6.878 H 0.856 V -0.04 c 0,-1.165 0.482,-1.767 1.245,-1.767 0.749,0 1.244,0.602 1.244,1.767 v 6.918 h 0.87 V 0 C 4.215,-1.659 3.372,-2.609 2.101,-2.609 0.83,-2.609 0,-1.659 0,0"
             style="fill:#234889;fill-opacity:1;fill-rule:nonzero;stroke:none"
             id="path235" /></g><g
           id="g237"
           transform="translate(118.6505,48.1855)"><path
             d="M 0,0 -0.95,4.71 -1.9,0 Z m -1.405,6.195 h 0.937 l 1.98,-9.407 H 0.629 L 0.134,-0.79 h -2.168 l -0.482,-2.422 h -0.856 z"
             style="fill:#234889;fill-opacity:1;fill-rule:nonzero;stroke:none"
             id="path239" /></g><g
           id="g241"
           transform="translate(121.8512,54.3408)"><path
             d="M 0,0 H 0.87 V -8.551 H 3.051 V -9.367 H 0 Z"
             style="fill:#234889;fill-opacity:1;fill-rule:nonzero;stroke:none"
             id="path243" /></g><g
           id="g245"
           transform="translate(129.3346,54.3408)"><path
             d="M 0,0 H 0.87 V -4.255 H 3.359 V 0 h 0.87 v -9.367 h -0.87 v 4.308 H 0.87 V -9.367 H 0 Z"
             style="fill:#234889;fill-opacity:1;fill-rule:nonzero;stroke:none"
             id="path247" /></g><g
           id="g249"
           transform="translate(139.1325,49.5098)"><path
             d="m 0,0 v 0.295 c 0,2.636 -0.615,3.853 -1.418,3.853 -0.803,0 -1.419,-1.217 -1.419,-3.853 V 0 c 0,-2.636 0.616,-3.854 1.419,-3.854 C -0.615,-3.854 0,-2.636 0,0 m -3.72,0 v 0.295 c 0,3.091 0.977,4.657 2.302,4.657 1.325,0 2.288,-1.566 2.288,-4.657 L 0.87,0 c 0,-3.091 -0.963,-4.656 -2.288,-4.656 -1.325,0 -2.302,1.565 -2.302,4.656"
             style="fill:#234889;fill-opacity:1;fill-rule:nonzero;stroke:none"
             id="path251" /></g><g
           id="g253"
           transform="translate(141.838,47.4629)"><path
             d="M 0,0 V 6.878 H 0.856 V -0.04 c 0,-1.165 0.482,-1.767 1.245,-1.767 0.749,0 1.244,0.602 1.244,1.767 v 6.918 h 0.87 V 0 C 4.215,-1.659 3.372,-2.609 2.101,-2.609 0.83,-2.609 0,-1.659 0,0"
             style="fill:#234889;fill-opacity:1;fill-rule:nonzero;stroke:none"
             id="path255" /></g><g
           id="g257"
           transform="translate(147.8087,45.3213)"><path
             d="M 0,0 V 0.95 C 0.629,0.562 1.151,0.375 1.593,0.375 c 0.709,0 1.191,0.441 1.191,1.204 V 1.606 C 2.784,2.289 2.542,2.743 1.579,4.002 0.361,5.567 0.014,6.116 0.014,7.053 v 0.026 c 0,1.218 0.869,2.062 1.953,2.062 0.575,0 0.991,-0.135 1.432,-0.389 V 7.802 C 2.891,8.137 2.462,8.297 2.021,8.297 1.365,8.297 0.883,7.829 0.883,7.133 V 7.106 C 0.883,6.478 1.138,6.035 2.101,4.831 3.279,3.386 3.653,2.677 3.653,1.646 V 1.619 C 3.653,0.361 2.77,-0.468 1.633,-0.468 1.057,-0.468 0.549,-0.294 0,0"
             style="fill:#234889;fill-opacity:1;fill-rule:nonzero;stroke:none"
             id="path259" /></g><path
           d="m 153.311,54.341 h 0.87 v -9.367 h -0.87 z"
           style="fill:#234889;fill-opacity:1;fill-rule:nonzero;stroke:none"
           id="path261" /><g
           id="g263"
           transform="translate(156.3498,54.3408)"><path
             d="M 0,0 H 0.87 L 3.453,-7.025 V 0 H 4.295 V -9.367 H 3.479 L 0.83,-2.141 V -9.367 H 0 Z"
             style="fill:#234889;fill-opacity:1;fill-rule:nonzero;stroke:none"
             id="path265" /></g><g
           id="g267"
           transform="translate(162.4806,49.5234)"><path
             d="m 0,0 v 0.268 c 0,3.064 1.325,4.629 2.917,4.629 0.496,0 0.844,-0.106 1.178,-0.293 V 3.68 C 3.694,3.921 3.333,4.055 2.931,4.055 1.833,4.055 0.883,2.811 0.883,0.281 v -0.295 c 0,-2.649 0.924,-3.827 2.034,-3.827 0.201,0 0.322,0.028 0.509,0.094 v 3.346 H 2.182 V 0.388 H 4.229 V -4.296 C 3.72,-4.55 3.373,-4.63 2.864,-4.63 1.298,-4.63 0,-3.131 0,0"
             style="fill:#234889;fill-opacity:1;fill-rule:nonzero;stroke:none"
             id="path269" /></g><g
           id="g271"
           transform="translate(171.651,54.3408)"><path
             d="M 0,0 H 0.87 V -8.551 H 3.051 V -9.367 H 0 Z"
             style="fill:#234889;fill-opacity:1;fill-rule:nonzero;stroke:none"
             id="path273" /></g><g
           id="g275"
           transform="translate(176.2296,54.3408)"><path
             d="M 0,0 H 3.292 V -0.816 H 0.87 V -4.242 H 3.064 V -5.059 H 0.87 V -8.551 H 3.332 V -9.367 H 0 Z"
             style="fill:#234889;fill-opacity:1;fill-rule:nonzero;stroke:none"
             id="path277" /></g><g
           id="g279"
           transform="translate(181.317,54.3408)"><path
             d="M 0,0 H 0.87 L 3.452,-7.025 V 0 H 4.296 V -9.367 H 3.479 l -2.65,7.226 V -9.367 H 0 Z"
             style="fill:#234889;fill-opacity:1;fill-rule:nonzero;stroke:none"
             id="path281" /></g><g
           id="g283"
           transform="translate(188.9606,45.7627)"><path
             d="m 0,0 c 1.244,0 2.141,1.191 2.141,3.761 v 0.267 c 0,2.57 -0.937,3.761 -2.155,3.761 H -0.401 V 0 Z m -1.271,8.578 h 1.217 c 1.833,0 3.078,-1.552 3.078,-4.55 V 3.761 c 0,-2.997 -1.245,-4.55 -3.078,-4.55 h -1.217 z"
             style="fill:#234889;fill-opacity:1;fill-rule:nonzero;stroke:none"
             id="path285" /></g><g
           id="g287"
           transform="translate(193.8346,54.3408)"><path
             d="M 0,0 H 3.292 V -0.816 H 0.87 V -4.242 H 3.064 V -5.059 H 0.87 V -8.551 H 3.332 V -9.367 H 0 Z"
             style="fill:#234889;fill-opacity:1;fill-rule:nonzero;stroke:none"
             id="path289" /></g><g
           id="g291"
           transform="translate(200.2331,49.3896)"><path
             d="m 0,0 c 1.124,0 1.86,0.709 1.86,2.074 v 0.04 c 0,1.419 -0.776,2.034 -1.9,2.034 H -0.441 V 0 Z m -1.312,4.951 h 1.298 c 1.647,0 2.743,-0.976 2.743,-2.823 v -0.04 c 0,-1.285 -0.561,-2.182 -1.471,-2.583 L 2.903,-4.416 H 1.927 L 0.401,-0.749 C 0.281,-0.776 0.147,-0.776 0.013,-0.776 h -0.454 v -3.64 h -0.871 z"
             style="fill:#234889;fill-opacity:1;fill-rule:nonzero;stroke:none"
             id="path293" /></g><g
           id="g295"
           transform="translate(209.8971,55.251)"><path
             d="M 0,0 H 0.723 L -2.195,-11.589 H -2.918 Z"
             style="fill:#234889;fill-opacity:1;fill-rule:nonzero;stroke:none"
             id="path297" /></g><g
           id="g299"
           transform="translate(215.0114,54.3408)"><path
             d="M 0,0 H 0.963 L 2.529,-4.75 4.108,0 H 5.071 V -9.367 H 4.229 v 7.414 L 2.556,-6.878 H 2.502 L 0.829,-1.953 V -9.367 H 0 Z"
             style="fill:#234889;fill-opacity:1;fill-rule:nonzero;stroke:none"
             id="path301" /></g><g
           id="g303"
           transform="translate(222.1598,54.3408)"><path
             d="M 0,0 H 3.292 V -0.816 H 0.87 V -4.242 H 3.064 V -5.059 H 0.87 V -8.551 H 3.332 V -9.367 H 0 Z"
             style="fill:#234889;fill-opacity:1;fill-rule:nonzero;stroke:none"
             id="path305" /></g><g
           id="g307"
           transform="translate(227.2467,54.3408)"><path
             d="M 0,0 H 0.963 L 2.529,-4.75 4.108,0 H 5.071 V -9.367 H 4.229 v 7.414 L 2.556,-6.878 H 2.502 L 0.829,-1.953 V -9.367 H 0 Z"
             style="fill:#234889;fill-opacity:1;fill-rule:nonzero;stroke:none"
             id="path309" /></g><g
           id="g311"
           transform="translate(235.5465,45.7764)"><path
             d="m 0,0 c 1.231,0 2.008,0.589 2.008,1.713 v 0.04 c 0,1.138 -0.723,1.78 -1.941,1.78 H -0.28 V 0 Z m 0.027,4.31 c 1.204,0 1.86,0.655 1.86,1.779 v 0.027 c 0,1.043 -0.696,1.646 -1.74,1.646 H -0.28 V 4.31 Z M -1.15,8.564 h 1.257 c 1.512,0 2.65,-0.856 2.65,-2.355 V 6.169 C 2.757,4.845 1.994,4.229 1.138,3.948 2.168,3.667 2.877,2.984 2.877,1.713 V 1.673 C 2.877,0.107 1.7,-0.803 -0.066,-0.803 H -1.15 Z"
             style="fill:#234889;fill-opacity:1;fill-rule:nonzero;stroke:none"
             id="path313" /></g><g
           id="g315"
           transform="translate(240.193,54.3408)"><path
             d="M 0,0 H 3.292 V -0.816 H 0.87 V -4.242 H 3.064 V -5.059 H 0.87 V -8.551 H 3.332 V -9.367 H 0 Z"
             style="fill:#234889;fill-opacity:1;fill-rule:nonzero;stroke:none"
             id="path317" /></g><g
           id="g319"
           transform="translate(246.5915,49.3896)"><path
             d="m 0,0 c 1.124,0 1.859,0.709 1.859,2.074 v 0.04 c 0,1.419 -0.775,2.034 -1.899,2.034 H -0.441 V 0 Z m -1.312,4.951 h 1.298 c 1.647,0 2.743,-0.976 2.743,-2.823 v -0.04 c 0,-1.285 -0.561,-2.182 -1.471,-2.583 L 2.903,-4.416 H 1.927 L 0.401,-0.749 C 0.281,-0.776 0.146,-0.776 0.013,-0.776 h -0.454 v -3.64 h -0.871 z"
             style="fill:#234889;fill-opacity:1;fill-rule:nonzero;stroke:none"
             id="path321" /></g><g
           id="g323"
           transform="translate(254.0885,54.3408)"><path
             d="M 0,0 H 3.158 V -0.816 H 0.87 V -4.349 H 2.931 V -5.152 H 0.87 V -9.367 H 0 Z"
             style="fill:#234889;fill-opacity:1;fill-rule:nonzero;stroke:none"
             id="path325" /></g><g
           id="g327"
           transform="translate(260.192,45.7627)"><path
             d="m 0,0 c 1.244,0 2.141,1.191 2.141,3.761 v 0.267 c 0,2.57 -0.937,3.761 -2.155,3.761 H -0.401 V 0 Z m -1.271,8.578 h 1.217 c 1.833,0 3.078,-1.552 3.078,-4.55 V 3.761 c 0,-2.997 -1.245,-4.55 -3.078,-4.55 h -1.217 z"
             style="fill:#234889;fill-opacity:1;fill-rule:nonzero;stroke:none"
             id="path329" /></g><path
           d="m 265.132,54.341 h 0.87 v -9.367 h -0.87 z"
           style="fill:#234889;fill-opacity:1;fill-rule:nonzero;stroke:none"
           id="path331" /><g
           id="g333"
           transform="translate(267.9303,49.5234)"><path
             d="m 0,0 v 0.268 c 0,3.144 1.191,4.603 2.569,4.603 0.429,0 0.657,-0.067 0.964,-0.214 V 3.733 C 3.186,3.935 2.931,4.028 2.623,4.028 1.659,4.028 0.884,2.837 0.884,0.268 V 0 c 0,-2.609 0.775,-3.761 1.739,-3.761 0.321,0 0.603,0.094 0.937,0.295 v -0.87 C 3.266,-4.51 2.944,-4.604 2.529,-4.604 1.111,-4.604 0,-3.131 0,0"
             style="fill:#234889;fill-opacity:1;fill-rule:nonzero;stroke:none"
             id="path335" /></g><g
           id="g337"
           transform="translate(90.4219,46.4521)"><path
             d="M 0,0 H -10.573 V 5.897 L -5.229,9.033 0,5.897 Z M -5.228,10.813 -13.534,6.086 V 4.377 h 1.272 V -1.496 H 1.597 v 5.873 h 1.296 v 1.662 z"
             style="fill:#234889;fill-opacity:1;fill-rule:evenodd;stroke:none"
             id="path339" /></g><path
           d="m 82.351,51.554 h 5.53 v -1.451 h -5.53 z"
           style="fill:#234889;fill-opacity:1;fill-rule:evenodd;stroke:none"
           id="path341" /><path
           d="m 82.351,49.394 h 5.53 v -1.451 h -5.53 z"
           style="fill:#234889;fill-opacity:1;fill-rule:evenodd;stroke:none"
           id="path343" /><g
           id="g345"
           transform="translate(142.8169,38.0811)"><path
             d="M 0,0 H 0.87 L 3.453,-7.025 V 0 H 4.295 V -9.367 H 3.479 L 0.83,-2.141 V -9.367 H 0 Z"
             style="fill:#234889;fill-opacity:1;fill-rule:nonzero;stroke:none"
             id="path347" /></g><g
           id="g349"
           transform="translate(149.189,38.0811)"><path
             d="M 0,0 H 0.963 L 2.529,-4.75 4.108,0 H 5.072 V -9.367 H 4.229 v 7.414 L 2.556,-6.878 H 2.502 L 0.83,-1.953 V -9.367 H 0 Z"
             style="fill:#234889;fill-opacity:1;fill-rule:nonzero;stroke:none"
             id="path351" /></g><g
           id="g353"
           transform="translate(156.3379,38.0811)"><path
             d="M 0,0 H 0.87 V -8.551 H 3.051 V -9.367 H 0 Z"
             style="fill:#234889;fill-opacity:1;fill-rule:nonzero;stroke:none"
             id="path355" /></g><g
           id="g357"
           transform="translate(160.6353,29.0615)"><path
             d="M 0,0 V 0.95 C 0.629,0.562 1.151,0.375 1.593,0.375 c 0.709,0 1.191,0.441 1.191,1.204 V 1.606 C 2.784,2.289 2.542,2.743 1.579,4.002 0.361,5.567 0.014,6.116 0.014,7.053 v 0.026 c 0,1.218 0.869,2.062 1.953,2.062 0.575,0 0.991,-0.135 1.432,-0.389 V 7.802 C 2.891,8.137 2.462,8.297 2.021,8.297 1.365,8.297 0.883,7.829 0.883,7.133 V 7.106 C 0.883,6.478 1.138,6.035 2.101,4.831 3.279,3.386 3.653,2.677 3.653,1.646 V 1.619 C 3.653,0.361 2.77,-0.468 1.633,-0.468 1.057,-0.468 0.549,-0.294 0,0"
             style="fill:#234889;fill-opacity:1;fill-rule:nonzero;stroke:none"
             id="path359" /></g><g
           id="g361"
           transform="translate(168.479,31.9385)"><path
             d="M 0,0 0.228,2.984 H -1.057 L -1.298,0 Z M -1.967,-0.775 H -2.824 L -2.837,0 h 0.923 l 0.241,2.984 h -0.896 l -0.014,0.777 h 0.977 l 0.188,2.382 h 0.602 L -1.004,3.761 H 0.294 L 0.481,6.143 H 1.097 L 0.91,3.761 H 1.793 L 1.807,2.984 H 0.843 L 0.616,0 h 0.923 l 0.013,-0.775 h -0.99 l -0.187,-2.45 h -0.629 l 0.187,2.45 h -1.271 l -0.187,-2.45 h -0.643 z"
             style="fill:#234889;fill-opacity:1;fill-rule:nonzero;stroke:none"
             id="path363" /></g><g
           id="g365"
           transform="translate(177.1401,31.4971)"><path
             d="M 0,0 V 4.885 L -1.98,0 Z M 0,-0.749 H -2.73 V -0.08 L 0.014,6.638 H 0.803 V 0 H 1.552 V -0.749 H 0.803 V -2.783 H 0 Z"
             style="fill:#234889;fill-opacity:1;fill-rule:nonzero;stroke:none"
             id="path367" /></g><g
           id="g369"
           transform="translate(183.2441,31.6445)"><path
             d="m 0,0 v 0.12 c 0,1.433 -0.535,2.048 -1.137,2.048 -0.428,0 -0.776,-0.241 -1.137,-0.589 V 0.736 c 0,-2.341 0.561,-3.011 1.137,-3.011 C -0.428,-2.275 0,-1.312 0,0 m -3.117,1.058 v 0.374 c 0,3.733 1.003,5.072 2.394,5.072 0.443,0 0.697,-0.081 0.964,-0.201 V 5.446 c -0.267,0.134 -0.549,0.241 -0.95,0.241 -0.923,0 -1.512,-1.137 -1.565,-3.359 0.361,0.349 0.762,0.603 1.297,0.603 0.924,0 1.793,-0.79 1.793,-2.797 V 0.026 c 0,-1.846 -0.856,-3.077 -1.966,-3.077 -1.098,0 -1.967,0.95 -1.967,4.109"
             style="fill:#234889;fill-opacity:1;fill-rule:nonzero;stroke:none"
             id="path371" /></g><g
           id="g373"
           transform="translate(188.8799,33.25)"><path
             d="m 0,0 v 0.281 c 0,2.757 -0.481,3.867 -1.19,3.867 -0.71,0 -1.206,-1.096 -1.206,-3.853 V 0.014 c 0,-2.757 0.496,-3.868 1.206,-3.868 C -0.481,-3.854 0,-2.756 0,0 m -3.252,-0.013 v 0.294 c 0,3.306 0.804,4.671 2.062,4.671 1.244,0 2.06,-1.352 2.06,-4.643 V 0.014 c 0,-3.306 -0.816,-4.67 -2.06,-4.67 -1.258,0 -2.062,1.351 -2.062,4.643"
             style="fill:#234889;fill-opacity:1;fill-rule:nonzero;stroke:none"
             id="path375" /></g><g
           id="g377"
           transform="translate(193.5781,37.2109)"><path
             d="M 0,0 H -2.502 V 0.87 H 0.844 V 0.187 l -2.022,-8.684 h -0.856 z"
             style="fill:#234889;fill-opacity:1;fill-rule:nonzero;stroke:none"
             id="path379" /></g><g
           id="g381"
           transform="translate(198.6914,35.7256)"><path
             d="M 0,0 V 0.054 C 0,1.124 -0.388,1.74 -0.964,1.74 -1.539,1.74 -1.94,1.124 -1.94,0.054 V 0 c 0,-0.99 0.387,-1.806 0.976,-1.806 C -0.375,-1.806 0,-0.99 0,0 m 0.147,-4.536 v 0.054 c 0,1.19 -0.482,1.954 -1.111,1.954 -0.629,0 -1.11,-0.764 -1.11,-1.954 v -0.054 c 0,-1.138 0.441,-1.86 1.11,-1.86 0.669,0 1.111,0.722 1.111,1.86 m -3.064,-0.04 v 0.094 c 0,1.124 0.508,1.994 1.19,2.355 -0.642,0.374 -1.03,1.124 -1.03,2.154 v 0.08 c 0,1.499 0.817,2.37 1.793,2.37 0.978,0 1.793,-0.871 1.793,-2.37 v -0.08 c 0,-1.03 -0.401,-1.78 -1.03,-2.154 0.682,-0.361 1.178,-1.231 1.178,-2.355 v -0.094 c 0,-1.539 -0.79,-2.556 -1.941,-2.556 -1.15,0 -1.953,1.017 -1.953,2.556"
             style="fill:#234889;fill-opacity:1;fill-rule:nonzero;stroke:none"
             id="path383" /></g><g
           id="g385"
           transform="translate(204.1797,33.4648)"><path
             d="m 0,0 v 0.95 c 0,2.342 -0.549,3.011 -1.124,3.011 -0.709,0 -1.138,-0.964 -1.138,-2.342 V 1.525 c 0,-1.512 0.523,-2.114 1.138,-2.114 0.415,0 0.763,0.24 1.124,0.589 m -2.636,-4.577 v 0.856 c 0.294,-0.147 0.669,-0.281 1.071,-0.281 0.922,0 1.499,1.098 1.565,3.252 -0.348,-0.348 -0.763,-0.602 -1.298,-0.602 -0.924,0 -1.793,0.79 -1.793,2.85 v 0.094 c 0,1.928 0.869,3.145 1.981,3.145 1.096,0 1.953,-0.95 1.953,-4.108 V 0.254 c 0,-3.733 -1.003,-5.072 -2.382,-5.072 -0.455,0 -0.803,0.107 -1.097,0.241"
             style="fill:#234889;fill-opacity:1;fill-rule:nonzero;stroke:none"
             id="path387" /></g></g></g></g></svg>
